<!DOCTYPE svg PUBLIC "-//W3C//DTD SVG 1.1//EN" "http://www.w3.org/Graphics/SVG/1.1/DTD/svg11.dtd">
<!-- Uploaded to: SVG Repo, www.svgrepo.com, Transformed by: SVG Repo Mixer Tools -->
<svg height="800px" width="800px" version="1.1" id="_x32_" xmlns="http://www.w3.org/2000/svg" xmlns:xlink="http://www.w3.org/1999/xlink" viewBox="0 0 512.00 512.00" xml:space="preserve" fill="#000000" stroke="#000000" stroke-width="2.56">
<g id="SVGRepo_bgCarrier" stroke-width="0"/>
<g id="SVGRepo_tracerCarrier" stroke-linecap="round" stroke-linejoin="round" stroke="#CCCCCC" stroke-width="5.12"> <style type="text/css"> .st0{fill:#ff0000;} </style> <g> <path class="st0" d="M397.457,272.044c0.027-0.018,0.053-0.035,0.079-0.053l0.114-0.079L397.457,272.044z"/> <path class="st0" d="M466.761,274.237v0.009c-4.228-4.615-9.386-8.186-15.124-10.588c-5.738-2.395-12.054-3.624-18.616-3.624 c-6.228,0.009-12.527,1.115-18.563,3.15c-6.009,2.044-11.764,5.009-16.922,8.808l-0.429,0.316l-0.14,0.087l-0.491,0.421 c-0.562,0.474-1.632,1.298-3.035,2.316c-4.913,3.641-14.001,9.913-24.774,17.23c-7.071,4.79-14.896,10.036-22.809,15.317 c0.018-0.386,0.035-0.773,0.035-1.158c0-12.852-5.246-24.564-13.685-32.994c-8.44-8.431-20.125-13.677-32.985-13.677H200.39 c-16.247,0-30.195,1.658-42.283,4.536c-18.159,4.298-32.178,11.369-43.494,19.352c-11.317,7.992-19.914,16.834-27.546,24.624 c-1.579,1.614-3.124,3.211-4.685,4.755l-38.67,33.792c-7.299,6.387-11.509,15.624-11.509,25.344v113.903 c0,10.133,5.93,19.326,15.124,23.52v-0.009c3.369,1.535,7.036,2.343,10.738,2.334c6.228-0.009,12.247-2.237,16.86-6.281 l72.058-61.768l113.377,20.597c3.14,0.58,6.316,0.861,9.474,0.861c11.018,0,21.668-3.369,30.599-9.686l-0.035,0.027 c7.754-5.395,45.687-31.775,83.111-58.014c18.72-13.106,37.283-26.177,51.934-36.564c7.299-5.21,13.632-9.728,18.492-13.272 c2.439-1.763,4.509-3.28,6.176-4.526c1.667-1.246,2.895-2.202,3.773-2.93v0.009l0.298-0.245l0.122-0.106l0.386-0.359 c4.738-4.342,8.457-9.43,11.054-14.993c2.562-5.57,3.982-11.614,4.053-17.808c0-0.184,0-0.377,0-0.562 C479.797,294.678,475.077,283.29,466.761,274.237z M449.829,323.574c-11.124,9.263-161.959,114.148-161.959,114.148 c-6.86,4.834-15.334,6.728-23.58,5.237l-118.166-21.484c-3.456-0.622-7.036,0.333-9.702,2.606l-75.83,65.013 c-1.14,1.009-2.772,1.228-4.158,0.596c-1.385-0.631-2.281-2.018-2.281-3.536V372.253c0-3.395,1.457-6.588,4.018-8.807 l39.231-34.275c21.633-21.624,41.196-47.362,102.989-47.362c61.777,0,86.462,0,98.832,0c13.65,0,24.721,11.062,24.721,24.712 c0,13.641-11.071,24.704-24.721,24.704c0,0-51.477,0-67.97,0l0.298,0.157c-4.843-0.157-8.913,3.65-9.106,8.5 c-0.14,4.86,3.685,8.931,8.527,9.088l0.281-0.14h92.252c0,0,75.9-49.88,87.006-59.136c12.141-8.992,30.318-11.246,40.073-0.622 C460.339,299.695,460.445,313.828,449.829,323.574z"/> <path class="st0" d="M216.374,204.32c20.142,13.791,45.477,23.897,45.477,23.897c2.334,0.754,5.93,1.421,7.176,1.421 c1.245,0,4.842-0.667,7.193-1.421c0,0,25.318-10.106,45.477-23.897c30.669-20.905,80.41-61.952,80.41-119.789 c0-58.688-33.195-85.278-69.706-84.515c-27.845,0.518-44.302,16.966-55.338,33.187c-2.018,3-5.036,4.93-8.035,5.018 c-3-0.088-6.001-2.018-8.018-5.018c-11.054-16.221-27.493-32.669-55.338-33.187c-36.528-0.763-69.724,25.826-69.724,84.515 C135.947,142.368,185.706,183.415,216.374,204.32z M188.987,36.747c2.807-3.422,6.299-6.343,10.299-8.764 c3.965-2.395,9.106-1.132,11.492,2.825c2.386,3.947,1.123,9.097-2.825,11.474c-2.631,1.588-4.562,3.272-6,5.036 c-2.913,3.579-8.176,4.114-11.773,1.201C186.617,45.607,186.074,40.344,188.987,36.747z M169.389,90.005 c0-5.57,0.579-10.755,1.825-15.536c1.176-4.466,5.737-7.141,10.194-5.974c4.474,1.167,7.14,5.738,5.983,10.202 c-0.808,3.096-1.281,6.877-1.281,11.308c0,4.43,0.456,9.474,1.421,15.15c1.526,9.089,5.386,17.528,11.036,25.449 c2.702,3.764,1.824,8.983-1.948,11.659c-3.755,2.693-8.965,1.807-11.667-1.938c-6.807-9.563-11.878-20.396-13.913-32.389 C169.967,101.523,169.389,95.558,169.389,90.005z"/> </g> </g>
<g id="SVGRepo_iconCarrier"> <style type="text/css"> .st0{fill:#ff0000;} </style> <g> <path class="st0" d="M397.457,272.044c0.027-0.018,0.053-0.035,0.079-0.053l0.114-0.079L397.457,272.044z"/> <path class="st0" d="M466.761,274.237v0.009c-4.228-4.615-9.386-8.186-15.124-10.588c-5.738-2.395-12.054-3.624-18.616-3.624 c-6.228,0.009-12.527,1.115-18.563,3.15c-6.009,2.044-11.764,5.009-16.922,8.808l-0.429,0.316l-0.14,0.087l-0.491,0.421 c-0.562,0.474-1.632,1.298-3.035,2.316c-4.913,3.641-14.001,9.913-24.774,17.23c-7.071,4.79-14.896,10.036-22.809,15.317 c0.018-0.386,0.035-0.773,0.035-1.158c0-12.852-5.246-24.564-13.685-32.994c-8.44-8.431-20.125-13.677-32.985-13.677H200.39 c-16.247,0-30.195,1.658-42.283,4.536c-18.159,4.298-32.178,11.369-43.494,19.352c-11.317,7.992-19.914,16.834-27.546,24.624 c-1.579,1.614-3.124,3.211-4.685,4.755l-38.67,33.792c-7.299,6.387-11.509,15.624-11.509,25.344v113.903 c0,10.133,5.93,19.326,15.124,23.52v-0.009c3.369,1.535,7.036,2.343,10.738,2.334c6.228-0.009,12.247-2.237,16.86-6.281 l72.058-61.768l113.377,20.597c3.14,0.58,6.316,0.861,9.474,0.861c11.018,0,21.668-3.369,30.599-9.686l-0.035,0.027 c7.754-5.395,45.687-31.775,83.111-58.014c18.72-13.106,37.283-26.177,51.934-36.564c7.299-5.21,13.632-9.728,18.492-13.272 c2.439-1.763,4.509-3.28,6.176-4.526c1.667-1.246,2.895-2.202,3.773-2.93v0.009l0.298-0.245l0.122-0.106l0.386-0.359 c4.738-4.342,8.457-9.43,11.054-14.993c2.562-5.57,3.982-11.614,4.053-17.808c0-0.184,0-0.377,0-0.562 C479.797,294.678,475.077,283.29,466.761,274.237z M449.829,323.574c-11.124,9.263-161.959,114.148-161.959,114.148 c-6.86,4.834-15.334,6.728-23.58,5.237l-118.166-21.484c-3.456-0.622-7.036,0.333-9.702,2.606l-75.83,65.013 c-1.14,1.009-2.772,1.228-4.158,0.596c-1.385-0.631-2.281-2.018-2.281-3.536V372.253c0-3.395,1.457-6.588,4.018-8.807 l39.231-34.275c21.633-21.624,41.196-47.362,102.989-47.362c61.777,0,86.462,0,98.832,0c13.65,0,24.721,11.062,24.721,24.712 c0,13.641-11.071,24.704-24.721,24.704c0,0-51.477,0-67.97,0l0.298,0.157c-4.843-0.157-8.913,3.65-9.106,8.5 c-0.14,4.86,3.685,8.931,8.527,9.088l0.281-0.14h92.252c0,0,75.9-49.88,87.006-59.136c12.141-8.992,30.318-11.246,40.073-0.622 C460.339,299.695,460.445,313.828,449.829,323.574z"/> <path class="st0" d="M216.374,204.32c20.142,13.791,45.477,23.897,45.477,23.897c2.334,0.754,5.93,1.421,7.176,1.421 c1.245,0,4.842-0.667,7.193-1.421c0,0,25.318-10.106,45.477-23.897c30.669-20.905,80.41-61.952,80.41-119.789 c0-58.688-33.195-85.278-69.706-84.515c-27.845,0.518-44.302,16.966-55.338,33.187c-2.018,3-5.036,4.93-8.035,5.018 c-3-0.088-6.001-2.018-8.018-5.018c-11.054-16.221-27.493-32.669-55.338-33.187c-36.528-0.763-69.724,25.826-69.724,84.515 C135.947,142.368,185.706,183.415,216.374,204.32z M188.987,36.747c2.807-3.422,6.299-6.343,10.299-8.764 c3.965-2.395,9.106-1.132,11.492,2.825c2.386,3.947,1.123,9.097-2.825,11.474c-2.631,1.588-4.562,3.272-6,5.036 c-2.913,3.579-8.176,4.114-11.773,1.201C186.617,45.607,186.074,40.344,188.987,36.747z M169.389,90.005 c0-5.57,0.579-10.755,1.825-15.536c1.176-4.466,5.737-7.141,10.194-5.974c4.474,1.167,7.14,5.738,5.983,10.202 c-0.808,3.096-1.281,6.877-1.281,11.308c0,4.43,0.456,9.474,1.421,15.15c1.526,9.089,5.386,17.528,11.036,25.449 c2.702,3.764,1.824,8.983-1.948,11.659c-3.755,2.693-8.965,1.807-11.667-1.938c-6.807-9.563-11.878-20.396-13.913-32.389 C169.967,101.523,169.389,95.558,169.389,90.005z"/> </g> </g>
</svg>